<svg width="748" height="257" viewBox="0 0 748 257" fill="none" xmlns="http://www.w3.org/2000/svg">
<path d="M290.996 113.157C275.54 113.157 260.582 113.157 245.292 113.157C245.292 79.1147 245.292 45.4071 245.292 11.3855C246.236 11.246 247.166 10.9889 248.097 10.9885C264.909 10.9809 281.725 10.7865 298.533 11.0768C318.872 11.4281 330.465 29.0854 322.876 47.9392C321.852 50.4822 320.072 52.8571 318.179 54.8748C316.311 56.8645 313.855 58.3019 311.288 60.2642C319.232 64.0128 325.668 68.833 327.422 77.6144C331.8 99.5293 318.997 111.798 301.976 112.939C298.493 113.172 294.989 113.092 290.996 113.157ZM279.529 92.9315C283.843 92.9249 288.167 93.0928 292.47 92.8722C299.556 92.5087 303.261 88.9959 303.638 82.6608C304.015 76.3027 299.881 70.6345 293.368 70.1717C285.345 69.6015 277.251 70.0354 268.855 70.0354C268.855 74.1469 268.855 77.7729 268.855 81.3989C268.855 85.1384 268.855 88.878 268.855 92.9322C272.613 92.9322 275.578 92.9322 279.529 92.9315ZM289.708 52.3156C291.477 51.9114 293.333 51.726 294.999 51.061C299.676 49.193 301.783 45.109 301.053 39.7816C300.374 34.8177 296.863 32.4289 292.515 32.1726C284.79 31.7171 277.018 32.0446 269.152 32.0446C269.152 39.0607 269.152 45.5884 269.152 52.388C275.935 52.388 282.383 52.388 289.708 52.3156Z" fill="#FAFBFC"/>
<path d="M290.993 244.18C275.522 244.181 260.549 244.181 245.259 244.181C245.259 210.511 245.259 177.138 245.259 143.239C249.788 143.239 254.081 143.199 258.374 143.247C272.53 143.406 286.716 143.076 300.831 143.928C314.203 144.734 321.599 151.716 323.706 163.571C325.921 176.037 321.154 185.616 309.574 191.671C310.213 192.067 310.726 192.459 311.296 192.728C324.196 198.817 329.349 208.712 326.912 222.743C324.828 234.743 315.824 242.609 302.478 243.871C298.839 244.216 295.155 244.089 290.993 244.18ZM268.24 203.759C268.24 210.485 268.24 217.212 268.24 224.193C276.308 224.193 283.74 224.457 291.145 224.117C298.265 223.791 302.208 220.323 302.731 214.842C303.352 208.343 300.092 204.114 292.064 201.944C285.643 201.854 279.222 201.682 272.802 201.735C271.351 201.746 269.907 202.536 268.24 203.759ZM269.353 163.691C268.957 170.343 268.561 176.994 268.163 183.697C276.242 183.697 283.255 184.095 290.2 183.583C296.808 183.095 300.485 178.633 300.234 172.766C300.002 167.351 296.376 164.077 289.713 163.793C283.225 163.517 276.722 163.612 269.353 163.691Z" fill="#F8FAFB"/>
<path d="M696.055 110.074C675.102 105.846 666.293 81.9802 672.88 63.085C676.639 52.3017 684.035 45.0204 695.212 42.2127C705.948 39.5159 715.925 41.5722 725.019 49.2117C725.425 46.1282 725.702 44.0303 726.024 41.588C732.925 41.588 739.796 41.588 746.731 41.588C746.731 65.9989 747.65 90.3035 746.35 114.489C745.683 126.909 736.813 135.486 724.629 139.295C706.902 144.835 690.25 142.252 674.124 131.768C677.76 126.696 681.186 121.918 684.857 116.797C691.589 121.71 698.927 124.267 707.169 124.15C720.724 123.957 726.109 118.07 724.843 104.103C716.115 109.946 706.77 112.455 696.055 110.074ZM708.583 92.2462C720.694 91.6445 725.098 87.0498 725.069 75.0514C725.064 73.0567 725.199 71.0502 725.02 69.0717C724.907 67.8179 724.626 66.3963 723.918 65.41C720.183 60.2036 709.669 57.89 702.87 60.6276C696.281 63.2803 692.91 70.4626 694.053 79.4137C694.991 86.7606 699.65 91.1244 708.583 92.2462Z" fill="#F8FAFB"/>
<path d="M506.989 19.0789C506.984 35.8946 506.979 52.2209 506.986 68.5473C506.986 68.8505 507.138 69.1537 507.468 70.3819C513.79 62.5697 520.178 55.4781 525.588 47.7069C529.138 42.6086 533.001 40.3819 539.166 40.984C544.398 41.495 549.719 41.0894 556.283 41.0894C551.994 46.1801 548.42 50.4466 544.818 54.6895C542.771 57.1013 540.693 59.488 538.601 61.8617C535.978 64.838 531.243 67.7724 531.219 70.7556C531.189 74.4404 534.933 78.2423 537.278 81.8433C543.891 92.0006 550.623 102.081 557.928 113.13C549.561 113.13 542.019 113.263 534.492 112.993C533.298 112.95 531.892 111.277 531.057 110.039C526.064 102.642 521.21 95.152 516.349 87.7545C507.248 94.0236 505.624 102.712 507.272 112.793C499.671 112.793 492.637 112.793 485.31 112.793C485.31 78.7961 485.31 44.9008 485.31 10.6758C492.444 10.6758 499.366 10.6758 506.989 10.6758C506.989 13.4052 506.989 15.9974 506.989 19.0789Z" fill="#F8FAFB"/>
<path d="M372.214 59.3832C361.943 56.1897 352.874 59.3479 343.576 63.4631C341.192 58.8531 338.927 54.4722 336.694 50.1554C349.931 39.7709 375.933 37.555 390.08 45.534C397.262 49.5845 401.617 55.9795 401.836 64.1158C402.271 80.2387 401.965 96.3817 401.965 112.819C394.62 112.819 387.366 112.819 379.728 112.819C379.728 110.778 379.728 108.711 379.728 107.521C373.103 109.899 366.735 113.188 359.995 114.39C347.001 116.707 335.162 108.267 332.597 96.03C330.86 87.7362 335.27 77.8581 342.753 73.9967C354.483 67.9442 366.533 67.095 378.774 72.6063C379.927 65.919 378.291 62.5529 372.214 59.3832ZM366.714 82.7686C365.061 82.914 363.372 82.8898 361.763 83.236C356.512 84.3651 353.781 87.49 354.281 91.5795C354.825 96.0282 358.274 98.855 363.403 99.0575C374.871 99.5102 379.747 94.6312 378.954 82.7125C375.231 82.7125 371.444 82.7125 366.714 82.7686Z" fill="#F8FAFB"/>
<path d="M590.818 71.7801C592.665 58.7716 599.656 50.0308 610.904 44.5663C628.317 36.1071 650.68 41.5675 661.01 56.7034C669.537 69.1973 669.088 86.6857 659.914 99.3616C650.908 111.806 633.582 117.657 618.495 113.347C599.23 107.843 588.374 91.7351 590.818 71.7801ZM643.415 83.4785C643.618 80.3439 644.233 77.1706 643.944 74.0821C643.151 65.6215 636.906 60.0053 628.706 59.9246C620.531 59.8442 615.051 64.8395 613.882 73.6425C613.579 75.9273 613.519 78.2991 613.749 80.5905C614.576 88.8222 619.094 94.1277 625.81 95.0353C634.119 96.1578 639.974 92.524 643.415 83.4785Z" fill="#F8FAFB"/>
<path d="M411.437 200.725C415.443 183.272 428.196 172.684 446.422 171.335C463.051 170.104 478.558 179.191 484.341 193.555C490.822 209.654 486.382 226.6 472.803 237.593C461.651 246.621 442.529 247.665 428.886 239.989C415.378 232.39 409.181 218.673 411.437 200.725ZM454.401 224.431C466.865 221.402 466.551 199.214 457.381 193.292C450.98 189.158 442.219 189.824 437.508 195.449C433.233 200.552 432.505 211.833 436.041 218.17C439.516 224.398 444.469 226.257 454.401 224.431Z" fill="#F8FAFB"/>
<path d="M402.42 189.632C412.891 210.366 404.993 233.869 385.137 241.994C363.388 250.894 339.3 240.433 332.676 219.211C327.841 203.723 333.406 187.076 346.422 178.091C359.985 168.728 380.657 169.159 393.209 179.433C396.622 182.227 399.232 186.001 402.42 189.632ZM356.847 196.534C356.008 198.687 354.88 200.775 354.379 203.004C352.434 211.656 355.664 220.598 361.657 223.719C373.392 229.831 384.564 221.419 383.972 206.872C383.695 200.065 381.161 194.511 374.461 191.845C367.884 189.227 362.078 190.645 356.847 196.534Z" fill="#F8FAFB"/>
<path d="M532.503 200.588C536.349 201.868 539.954 202.698 543.246 204.21C555.371 209.78 558.617 225.051 549.481 234.92C546.43 238.216 542.327 241.271 538.121 242.637C520.406 248.393 504.061 245.079 488.927 233.46C492.323 229.008 495.602 224.71 499.033 220.212C505.786 224.782 512.746 228.077 520.772 228.289C522.591 228.338 524.698 228.58 526.178 227.798C528.312 226.67 529.994 224.687 531.87 223.068C530.231 221.493 528.852 219.155 526.903 218.495C522.209 216.904 517.208 216.247 512.41 214.925C509.066 214.003 505.709 212.893 502.606 211.364C490.213 205.256 488.236 188.107 498.972 179.242C512.969 167.682 537.124 169.291 552.075 180.76C549.255 185.014 546.424 189.282 543.748 193.319C538.277 191.638 533.027 189.612 527.59 188.514C524.474 187.885 520.996 188.475 517.8 189.111C516.575 189.354 514.92 191.206 514.846 192.41C514.773 193.611 516.179 195.628 517.376 196.056C522.198 197.78 527.189 199.028 532.503 200.588Z" fill="#F7F9FB"/>
<path d="M477.896 96.9515C468.674 116.829 440.544 119.639 424.107 107.758C407.445 95.7141 403.672 70.7913 416.332 54.5306C432.225 34.1174 467.683 36.8686 478.827 59.5093C472.5 62.3126 466.179 65.1135 459.875 67.9062C454.541 59.3127 445.791 57.1733 438.291 62.5236C430.762 67.8945 429.588 82.4983 436.082 89.992C442.336 97.2084 452.216 96.6568 460.877 88.2198C466.444 90.9487 472.194 93.7676 477.896 96.9515Z" fill="#F8FAFB"/>
<path d="M565.944 213.989C565.944 205.68 565.944 197.869 565.944 189.589C562.997 189.589 560.272 189.589 557.262 189.589C557.262 184.205 557.262 179.289 557.262 174.067C560.085 173.79 562.825 173.52 565.86 173.222C565.86 165.853 565.86 158.735 565.86 151.276C573.424 151.276 580.668 151.276 588.637 151.276C588.637 158.66 588.637 166.059 588.637 173.79C593.619 173.79 597.894 173.79 602.522 173.79C602.522 179.05 602.522 183.973 602.522 189.489C598.182 189.489 593.771 189.489 589.012 189.489C589.012 200.471 588.816 210.879 589.111 221.274C589.224 225.274 591.99 227.084 596.083 226.269C597.85 225.918 599.603 225.501 601.67 225.046C602.598 230.13 603.514 235.147 604.415 240.078C588.235 250.773 570.276 244.92 566.933 227.877C566.078 223.516 566.246 218.955 565.944 213.989Z" fill="#F7F9FB"/>
<path d="M561.099 41.9999C561.099 31.3752 561.099 21.2505 561.099 10.803C568.58 10.803 575.654 10.803 583.007 10.803C583.007 44.7788 583.007 78.661 583.007 112.872C575.85 112.872 568.805 112.872 561.099 112.872C561.099 89.3087 561.099 65.9043 561.099 41.9999Z" fill="#FAFBFC"/>
<path d="M190.5 256.5C188.676 256.604 186.406 256.966 184.582 256.967C140.115 256.988 95.6479 256.989 51.1809 256.993C49.697 256.994 48.2131 256.993 45.8145 256.993C45.8145 244.478 45.6212 230.96 46 218.5C46.6095 220.012 47.2181 223.042 47.2327 224.787C47.3025 233.17 47.2641 241.555 47.2641 249.94C47.8428 249.76 48.4215 249.581 49.0002 249.402C50.6694 250.258 53.2402 251.136 54.5 252C52.752 252.328 50.5119 252.627 49.1733 252.947C49.2431 253.529 49.313 254.111 49.3829 254.693C55.8915 254.693 62.4006 254.721 68.9081 254.635C69.393 254.628 69.8499 253.777 70.3488 253.353C76.1842 248.388 81.9516 243.34 87.89 238.502C92.0034 235.151 96.8896 232.594 100.471 228.781C105.544 223.38 111.563 219.756 118.181 216.992C124.39 214.398 130.727 213.323 136.329 218.611C140.772 222.806 147.689 223.547 151.027 229.458C151.8 230.827 154.394 231.127 156.093 232.027C157.315 232.674 158.891 233.235 159.522 234.301C161.023 236.836 162.255 239.577 163.24 242.361C165.94 249.988 168.465 252.164 176.034 252.443C178.693 252.54 181.371 252.122 184.031 251.95C184.582 251.857 184.894 252.286 185 252.5C185.301 252.98 184.765 252.758 185.089 252.868C185.099 252.878 186.057 252.579 186.086 252.868C186.586 252.868 186.189 252.558 186.5 252.868C186.82 252.37 186.853 253 187.5 252.5C188.262 252.484 188.429 252.212 189 252.5C189.406 253.85 190.229 255.452 190.5 256.5Z" fill="#F86687"/>
<path d="M190.5 256.5C189.918 255.368 188.89 254.294 188.5 252.5C188.053 246.409 188.347 241.342 188.285 235.697C188.694 232.595 188.839 229.794 188.984 226.662C188.984 225.89 188.983 225.449 188.991 224.553C188.998 215.353 189.128 206.605 188.964 197.862C188.777 187.911 188.447 177.959 187.893 168.023C187.782 166.045 186.38 164.14 185.034 160.908C183.181 164.977 182.057 167.444 180.713 170.394C179.178 168.708 178.016 167.432 176.524 165.793C173.513 167.426 170.656 169.424 167.488 170.535C165.41 171.264 162.863 170.9 160.566 170.655C159.338 170.524 158.248 169.336 157.004 169.087C146.41 166.966 140.005 159.253 140.003 148.458C140.002 142.012 139.872 135.562 140.041 129.12C140.161 124.578 138.102 123.183 133.738 122.84C129.958 122.544 126.162 121.171 122.598 119.721C118.059 117.874 115.176 113.028 109 114.5C108.99 103.34 108.589 90.6908 109 80C111.019 80.5673 114.285 81.8868 114.461 82.7475C115.522 87.9388 119.201 87.8979 123.176 88.056C127.949 88.2457 129.109 90.1702 127.639 94.7807C126.269 99.0752 129.705 103.129 134.139 102.452C138.442 101.794 142.545 103.983 143.496 108.384C144.709 114.003 146.406 120.003 145.526 125.457C144.566 131.404 146.803 134.235 151.106 136.674C154.906 138.827 158.782 140.88 162.774 142.636C163.956 143.156 165.647 142.523 167.104 142.409C171.709 142.047 175.373 136.942 180.692 139.704C180.998 139.864 182.312 138.407 182.938 137.543C183.661 136.545 184.142 135.372 185.51 132.81C186.697 135.753 188.833 136.963 189.5 139C189.501 140.434 189.506 141.617 189.5 143C189.825 144.128 189.668 144.275 190 145.5C190.661 154.426 190.71 163.845 190.895 172.345C191.21 186.806 190.953 201.279 191.027 215.746C191.036 217.494 191.606 219.239 191.916 220.986C191.981 230.037 192.046 239.088 192.101 248.98C192.159 250.861 192.228 251.899 192.298 252.938C192.234 253.407 192.171 253.877 192.111 254.922C192.114 255.497 192.255 255.968 192.255 255.968C191.729 256.257 191.338 256.295 190.5 256.5Z" fill="#FEB397"/>
<path d="M0.27697 184.032C0.26223 179.656 0.247475 175.279 0.668282 170.304C1.73754 166.185 2.6233 162.686 2.95179 159.136C3.6097 152.026 3.96278 144.887 4.4417 137.76C5.54659 138.266 5.7243 138.823 5.95148 139.359C6.58398 140.851 7.23701 142.334 7.88192 143.821C8.59547 142.242 9.29064 140.654 10.0281 139.086C10.6866 137.685 11.3917 136.307 12.0763 134.919C12.5596 135.132 13.0429 135.345 13.5262 135.558C13.8475 137.866 14.1688 140.175 14.3287 141.324C17.806 139.397 20.9169 137.024 24.4287 135.851C34.4214 132.514 40.2476 125.362 44.4094 116.043C45.5376 117.283 46.7714 118.457 46.8822 119.73C47.178 123.127 46.9913 126.567 46.9934 130.452C46.9772 134.61 46.9639 138.308 46.5873 142.017C44.2175 145.095 42.4067 148.312 40.169 151.197C32.576 160.99 24.8774 170.702 17.0683 180.322C16.366 181.187 14.4753 180.984 13.3202 181.614C12.1503 182.253 10.3915 183.234 10.3034 184.195C9.8388 189.261 9.76646 194.367 9.6724 199.461C9.6305 201.731 9.85677 204.005 9.97225 206.515C8.03471 206.602 6.66299 206.664 5.3711 206.722C5.3711 209.493 5.3711 211.915 5.3711 215C9.22218 215 12.8468 214.819 16.4382 215.084C18.0089 215.201 19.9337 216.367 21 217.028C18.3665 217.098 15.7748 216.918 13.613 217.028C10.1142 217.206 7.49585 217.763 4 218C-0.640762 216.23 0.927146 211.849 0.46537 208.049C0.591544 199.546 0.434258 191.789 0.27697 184.032Z" fill="#FA8352"/>
<path d="M0.545908 104.081C0.466532 98.6861 0.387155 93.2914 0.785562 87.4131C2.17436 84.669 3.7438 82.4446 3.87034 80.141C4.22116 73.7536 3.52039 67.224 3.5 60.5C3.48952 59.7609 3.68434 59.125 3.95065 58.5C6.26223 55.0032 8.24107 55.8072 9.49517 59.1535C10.2722 61.227 10.7727 63.4041 11.6829 66.5092C13.1988 64.0956 14.1078 62.6483 15.0963 61.0743C22.0617 64.0948 29.1259 63.6918 36.0298 61.8683C39.0807 61.0625 41.8006 58.9138 44.5948 57.2474C48.6793 54.8115 52.6596 52.2003 56.7546 49.7827C59.0977 48.3993 62.1254 46.4002 64.5 45.5C63.7332 47.123 62.7741 49.673 61.6965 50.4465C50.8063 58.2629 47.3243 69.2101 47.6398 82.0465C45.3662 83.0544 43.2743 83.7765 41.5635 85.0219C36.4234 88.764 30.95 90.6668 24.4387 90.1182C20.4861 89.7851 16.1107 88.8554 12.6715 92.3796C12.3381 92.7213 10.6139 92.1242 9.86303 91.5409C8.76962 90.6914 7.97395 89.4587 7.04154 88.3781C4.20388 91.1259 4.15539 91.1252 4.02937 99.471C3.99145 101.982 3.99272 104.264 0.545908 104.081Z" fill="#FEB381"/>
<path d="M3.93467 59.0254C3.93742 59.4478 3.94015 59.8701 3.6112 60.6266C2.37037 60.9562 1.46126 60.9518 0.552121 60.9474C0.437695 42.8229 0.243864 24.6983 0.264173 6.57394C0.269316 1.99026 2.80708 0.117826 8.42442 0.101988C29.0676 0.0436994 49.711 0.0633838 70.3543 0.0645128C81.5084 0.0651238 92.6688 -0.111422 103.812 0.244078C106.506 0.329985 109.818 1.51703 111.704 3.3638C136.672 27.8129 161.418 52.4877 186.267 77.0587C190.396 81.141 192.295 85.7386 192.268 91.7187C192.072 134.503 192.146 177.288 192.025 220.529C191.606 219.239 191.036 217.494 191.027 215.746C190.953 201.279 191.21 186.806 190.895 172.345C190.71 163.845 189.667 155.363 189.242 146.227C188.99 144.706 188.507 143.831 188.024 142.956C188.026 141.913 188.029 140.87 188.367 139.342C189.002 138.495 189.566 138.13 189.562 137.77C189.411 123.042 189.106 108.315 189.05 93.5872C189.016 84.5132 185.098 78.0299 176.993 73.6017C173.921 69.5031 171.144 65.5388 167.838 62.0791C162.305 56.2863 156.492 50.754 150.688 45.227C145.443 40.2333 138.788 36.1867 135.075 30.2673C131.205 24.0978 123.103 23.3385 120.39 15.678C118.853 11.3367 112.964 8.53641 108.695 4.8529C103.571 4.10632 98.787 3.54892 93.8064 2.7605C92.7382 2.68426 91.8664 2.83905 90.6211 2.99139C89.5005 2.99631 88.7535 3.00363 87.5372 3.00348C66.3045 2.99609 45.5411 2.99628 24.7776 2.99628C19.7032 2.99628 14.5852 2.60882 9.57423 3.17282C7.35801 3.42227 3.60049 5.53097 3.54742 6.91119C3.21344 15.5973 3.72477 24.3158 3.9584 33.4906C3.64402 41.0694 3.27664 48.1796 3.06079 55.2944C3.02337 56.5281 3.62709 57.7812 3.93467 59.0254Z" fill="#E0BAA7"/>
<path d="M54.0079 251.971C52.3386 251.115 50.6694 250.258 49.0002 249.402C48.4215 249.581 47.8428 249.76 47.264 249.94C47.264 241.555 47.0698 233.384 47 225C46.9855 223.255 46.8028 221.301 46.3051 219.339C45.8004 218.87 45.5627 218.619 45.1714 218.159C45.0177 217.95 45.0311 217.932 45.4988 217.949C59.0669 217.983 72.1675 218.054 85.2676 218C96.6111 217.953 108.875 205.49 109.038 194.224C109.107 189.457 109.824 184.189 110.5 179.5C116.59 185.206 122.239 191.116 128 197C128 197.422 128.35 198.382 128 198.5C125.674 196.805 123.493 194.307 121.299 193.044C119.443 191.975 117.154 191.349 115.023 191.254C114.381 191.225 113.606 193.614 112.932 194.916C110.39 199.82 108.623 205.377 105.137 209.473C101.042 214.286 95.3381 217.695 90.5508 221.959C82.5409 229.093 74.8726 236.618 66.7212 243.582C62.8904 246.855 58.2703 249.203 54.0079 251.971Z" fill="#FE6A5E"/>
<path d="M0.340384 104C3.90978 103.743 3.99143 101.982 4.02935 99.471C4.15537 91.1252 4.20386 91.1259 7.04152 88.3781C7.97393 89.4587 8.76959 90.6914 9.86301 91.5409C10.6138 92.1242 12.3381 92.7213 12.6715 92.3796C16.1107 88.8554 20.4861 89.7851 24.4387 90.1182C30.95 90.6668 36.4234 88.764 41.5635 85.0219C43.2743 83.7765 45.2174 82.6429 47.5 82C49.1864 84.748 50.6565 87.5889 51.5884 90.0179C46.4142 91.6612 46.4835 96.3171 44.6975 100.178C42.0646 104.777 39.5525 108.93 34.0432 110.096C32.896 110.339 32.0425 111.776 30.9515 112.51C25.2365 116.358 19.4555 119.274 12.1819 116.356C5.72463 113.767 3.69565 115.275 3.06323 122.343C2.88632 124.32 3.20992 126.353 2.92548 128.306C2.73818 129.591 1.87378 130.778 1.23891 131.657C0.890292 130.182 0.615343 129.06 0.34038 127.938C0.327151 120.278 0.231009 112.099 0.340384 104Z" fill="#FDA773"/>
<path d="M1 131.5C1.56122 130.269 2.73819 129.591 2.92549 128.306C3.20993 126.353 2.88633 124.32 3.06324 122.343C3.69566 115.275 5.72463 113.767 12.1819 116.356C19.4555 119.274 25.2365 116.358 30.9515 112.51C32.0425 111.776 32.896 110.339 34.0433 110.096C39.5525 108.93 41.7844 104.64 44.418 100.5C44.3877 105.821 44.7505 111.324 44.418 116.356C40.6626 125.696 34.4214 132.514 24.4287 135.851C20.9169 137.024 17.806 139.397 14.3287 141.324C14.1688 140.175 13.8475 137.866 13.5262 135.558C13.0429 135.345 12.5596 135.132 12.0763 134.919C11.3917 136.307 10.6866 137.685 10.0281 139.086C9.29063 140.654 8.59545 142.242 7.88191 143.821C7.23699 142.334 6.58396 140.851 5.95147 139.359C5.72428 138.823 5.54658 138.266 4.44169 137.76C3.96276 144.887 3.60969 152.026 2.95178 159.136C2.62329 162.686 1.73753 166.185 0.784327 169.853C0.387706 161.321 0.310618 152.642 0.512416 143.167C0.965052 138.918 0.826233 134.954 1 131.5Z" fill="#FC9965"/>
<path d="M0.499977 60.9432C1.51995 60.4852 3.25142 60.513 4.49999 60.5C4.85207 66.89 4.22113 73.7536 3.87032 80.141C3.74378 82.4446 3.08686 86.0332 1 88C0.572296 79.66 0.466637 69.7829 0.499977 60.9432Z" fill="#FEBC8B"/>
<path d="M3.57053 217.83C6.6205 217.487 10.1142 217.206 13.613 217.028C15.7748 216.918 17.9445 216.964 21.0379 216.94C26.8668 216.656 31.773 216.106 36.6685 216.189C39.4651 216.236 42.713 216.885 45.5 217.5C45.5 217.5 45.4928 218.006 45.5 218C31.8353 217.993 17.6883 217.937 3.57053 217.83Z" fill="#FE6A5E"/>
<path d="M0.155749 184.483C0.434268 191.789 0.591555 199.546 0.505359 207.629C0.186084 200.282 0.110293 192.607 0.155749 184.483Z" fill="#A57468"/>
<path d="M1.23892 131.657C1.13881 135.464 0.965059 138.918 0.554003 142.703C0.23221 138.303 0.147722 133.573 0.201815 128.39C0.615358 129.06 0.890307 130.182 1.23892 131.657Z" fill="#A57468"/>
<path d="M192.487 252.702C192.228 251.899 192.159 250.861 192.197 249.444C192.428 250.2 192.552 251.333 192.487 252.702Z" fill="#07183D"/>
<path d="M192.376 255.878C192.255 255.968 192.114 255.497 192.204 255.269C192.597 255.237 192.664 255.487 192.376 255.878Z" fill="#07183D"/>
<path d="M127.976 196.976C122.214 191.344 116.453 185.713 110.347 179.686C109.975 178.859 109.949 178.428 109.948 177.53C109.189 165.697 111.831 154.543 108 143C108.411 139.905 108.388 136.72 109 134C110.027 134.41 111.387 134.686 111.735 135.272C114.456 139.852 117.487 143.677 123.226 145.029C132.882 147.305 138.449 153.425 140.107 163.57C140.814 167.898 142.848 172.574 145.694 175.87C151.734 182.869 158.711 189.059 165.288 195.596C171.473 201.743 178.111 207.501 180.808 216.353C181.226 217.724 183.591 218.5 185.503 219.873C186.374 221.158 187.696 222.575 189 224.5C189.001 224.941 189.37 226.122 189 227C189 230.5 188.575 233.07 188.5 236C188.828 241.345 188.675 246.687 188.986 252.476C188.534 252.934 188.099 252.949 187.012 252.946C185.927 252.937 185.493 252.946 185.06 252.954C185.06 252.954 185.041 252.974 184.944 252.736C184.653 252.212 184.386 252.038 184.045 251.977C184.045 251.977 184.021 251.961 183.999 251.608C180.37 247.663 176.797 244.037 173.151 240.486C165.437 232.973 157.685 225.499 149.917 217.674C148.923 216.569 147.959 215.798 146.77 214.997C146.545 214.966 146.09 214.936 146.023 214.602C143.313 211.831 140.671 209.395 137.842 206.715C136.753 205.65 135.852 204.829 134.917 203.673C133.917 202.581 132.953 201.823 131.781 200.927C131.314 200.574 131.111 200.313 130.931 199.671C129.922 198.549 128.949 197.762 127.976 196.976Z" fill="#FE9A83"/>
<path d="M130.967 200.008C131.111 200.313 131.314 200.574 131.83 201.253C133.042 202.48 133.997 203.244 134.951 204.007C135.852 204.829 136.753 205.65 137.875 207.073C139.191 211.825 142.18 213.352 146 214.5C146 214.5 146.729 214.639 147 215C148.225 216.135 150.051 216.991 150.5 218C158.236 225.49 165.437 232.973 173.151 240.486C176.797 244.037 180.862 248.066 184.5 252C181.863 252.525 178.693 252.54 176.034 252.443C168.465 252.164 165.94 249.988 163.24 242.361C162.255 239.577 161.023 236.836 159.522 234.301C158.891 233.235 157.315 232.674 156.093 232.027C154.394 231.127 151.8 230.827 151.027 229.458C147.689 223.547 140.772 222.806 136.329 218.611C130.727 213.323 124.39 214.398 118.181 216.992C111.563 219.756 105.544 223.38 100.471 228.781C96.8896 232.594 92.0034 235.151 87.89 238.502C81.9517 243.34 76.1842 248.388 70.3488 253.353C69.8499 253.777 69.3931 254.628 68.9081 254.635C62.4006 254.721 55.8915 254.693 49.3829 254.693C49.313 254.111 49.2431 253.529 49.1733 252.947C50.5119 252.627 51.8505 252.307 53.5985 251.979C58.2703 249.203 62.8904 246.855 66.7213 243.582C74.8727 236.618 82.5409 229.093 90.5508 221.959C95.3381 217.695 101.042 214.286 105.137 209.473C108.623 205.377 110.39 199.82 112.932 194.916C113.606 193.614 114.381 191.225 115.023 191.254C117.154 191.349 119.443 191.975 121.299 193.044C123.493 194.307 125.3 196.243 127.701 198.271C129.075 199.106 130.021 199.557 130.967 200.008Z" fill="#F95B80"/>
<path d="M177 73.5C186.51 76.7526 189.021 86 189.05 93.5872C189.106 108.315 189.411 123.042 189.562 137.77C189.566 138.13 189.002 138.495 188.363 138.951C187.36 137.398 186.697 135.752 185.51 132.81C184.142 135.372 183.661 136.545 182.938 137.543C182.312 138.407 180.998 139.864 180.692 139.704C175.373 136.942 171.709 142.047 167.104 142.409C165.647 142.523 163.956 143.156 162.774 142.636C158.782 140.88 154.906 138.827 151.106 136.674C146.803 134.235 144.566 131.404 145.526 125.457C146.406 120.003 144.709 114.003 143.496 108.384C142.545 103.983 138.442 101.794 134.139 102.452C129.705 103.129 126.269 99.0752 127.639 94.7807C129.109 90.1702 127.949 88.2457 123.176 88.056C119.201 87.8979 115.522 87.9387 114.461 82.7475C114.285 81.8868 111.133 81.4666 109.107 80.5C108.686 79.0369 108.994 78.0762 109.107 76.7526C109.487 75.9889 109.27 75.0005 110 74.5C122.75 74.5073 135.514 75.1268 147.794 74.9555C157.549 74.8194 167.248 73.8449 177 73.5Z" fill="#FEB89A"/>
<path d="M108.989 77.0117C108.994 78.0762 108.998 79.1407 109.01 80.6044C109.016 91.6939 109.014 102.384 109.015 114.011C109.031 121.307 109.047 127.667 109.063 134.027C108.816 136.757 109.214 141.035 108.5 144C103.264 139.85 97.8145 133.956 93.0897 129.525C83.9178 120.923 74.712 112.354 65.6807 103.606C61.5711 99.6248 57.8435 95.2496 53.9719 90.6987C54.6723 88.8954 55.3436 87.4467 56.3591 85.9524C59.1356 83.6075 61.5677 81.3081 64.0074 78.7599C64.015 78.5111 64.0285 78.0135 64.4464 77.9956C69.9087 77.3149 74.953 76.6521 80.4661 75.9884C89.952 75.6803 98.9496 74.523 108 74.5C108.346 75.2432 108.677 76.5526 108.989 77.0117Z" fill="#FECF9F"/>
<path d="M109 134.5C108.62 128.129 109.031 121.307 109.025 114.48C115.2 112.072 118.059 117.874 122.598 119.721C126.162 121.171 129.958 122.544 133.738 122.84C138.102 123.183 140.161 124.578 140.041 129.12C139.872 135.562 140.002 142.012 140.003 148.458C140.005 159.253 146.41 166.966 157.004 169.087C158.248 169.336 159.338 170.524 160.566 170.655C162.863 170.9 165.41 171.264 167.488 170.535C170.656 169.424 173.513 167.426 176.524 165.793C178.016 167.432 179.178 168.708 180.713 170.394C182.057 167.444 183.181 164.977 185.034 160.908C186.38 164.14 187.782 166.045 187.893 168.023C188.447 177.959 188.777 187.911 188.964 197.862C189.128 206.605 188.998 215.353 188.991 224.553C187.679 223.083 186.374 221.158 185.503 219.873C183.591 218.5 181.226 217.724 180.808 216.353C178.111 207.501 171.473 201.743 165.288 195.596C158.711 189.059 151.734 182.869 145.694 175.87C142.848 172.574 140.814 167.898 140.107 163.57C138.449 153.425 132.882 147.305 123.226 145.029C117.487 143.677 114.456 139.852 111.735 135.272C111.387 134.686 110.027 134.91 109 134.5Z" fill="#FEA990"/>
<path d="M188.285 235.697C188.094 233.067 188.168 230.136 188.613 227.099C188.839 229.794 188.694 232.595 188.285 235.697Z" fill="#FEA990"/>
<path d="M188.02 143.296C188.507 143.831 188.99 144.706 189.238 145.791C188.674 145.213 188.345 144.424 188.02 143.296Z" fill="#FEB89A"/>
<path d="M46.5 142C46.5133 138.303 46.6353 134.701 47.0065 130.5C50.8064 128.029 54.5606 125.917 58.0402 124.02C61.8232 121.956 66.8993 122.285 69.3861 117.649C69.6747 117.111 72.4466 117.173 73.4332 117.863C78.6634 121.522 83.7226 125.43 88.7761 129.336C91.4657 131.414 93.9953 133.699 96.647 135.828C102.471 140.506 108.142 144.766 107.225 153.93C106.467 161.51 107.673 169.286 107.761 176.987C107.514 176.998 107.02 177.012 106.873 176.7C103.183 172.503 100.171 167.837 95.9401 164.966C92.0932 162.356 86.9491 161.6 82.301 160.298C81.7168 160.134 80.2939 161.461 79.9029 162.373C78.2528 166.221 75.2304 167.161 71.4279 167.024C69.458 166.953 67.4605 167.119 65.5013 167.376C59.3305 168.183 53.1654 170.101 47 170.5C46.98 161.03 46.5179 151.004 46.5 142Z" fill="#FF9D48"/>
<path d="M106.5 176.5C106.5 176.5 107.514 176.998 107.93 177.219C108.872 177.625 109.974 177.032 110.5 177.219C110.526 177.649 110.458 179.247 110.5 180C110.169 185.085 109.107 189.457 109.038 194.224C108.875 205.49 96.6111 217.953 85.2676 218C72.1675 218.054 59.0669 217.983 45.4988 217.949C42.2442 217.317 39.4651 216.237 36.6685 216.189C31.773 216.106 25.8616 216.761 20.5 217C18.5065 216.338 18.0089 215.201 16.4382 215.084C12.8468 214.819 9.22217 215 5.37109 215C5.37109 211.915 5.37109 209.493 5.37109 206.722C6.66298 206.664 8.0347 206.602 9.97224 206.515C9.85677 204.005 9.63049 201.731 9.67239 199.461C9.76645 194.367 9.83879 189.261 10.3034 184.195C10.3915 183.234 12.1503 182.253 13.3202 181.614C14.4753 180.984 16.366 181.187 17.0683 180.322C24.8774 170.702 32.576 160.99 40.169 151.197C42.4067 148.312 44.2175 145.095 46.5873 142.017C46.9685 151.009 46.9865 160.013 46.9976 169.958C46.6613 184.323 46.4169 197.751 45.9462 211.172C45.8184 214.813 46.9413 216.147 50.7171 216.083C62.5136 215.885 74.3163 216.074 86.1148 215.947C88.0232 215.926 90.2187 215.52 91.777 214.512C100.665 208.763 108.136 202.079 107.061 189.97C106.681 185.683 106.493 180.821 106.5 176.5Z" fill="#FE7A4A"/>
<path d="M109.948 177.53C109.397 177.812 107.919 177.418 107.225 177C106.72 169.079 106.467 161.51 107.225 153.93C108.142 144.766 102.471 140.506 96.647 135.828C93.9954 133.699 91.4657 131.414 88.7761 129.336C83.7226 125.43 78.6634 121.522 73.4332 117.863C72.4466 117.173 69.6747 117.111 69.3861 117.649C66.8993 122.285 61.8232 121.956 58.0402 124.02C54.5606 125.917 50.797 128.491 47 130.5C46.6399 127.119 47.178 123.127 46.8822 119.73C46.7714 118.457 45.5376 117.283 44.4094 116.043C44.3355 110.99 44.0778 105.991 44.4094 100.5C45.8934 96.3502 46.1446 91.4165 51.5 90C52.6049 90.4209 53.466 90.3062 54 90.5C57.9009 94.6964 61.5711 99.6248 65.6807 103.606C74.712 112.354 83.9178 120.923 93.0897 129.525C97.8145 133.956 103.105 138.986 108.177 143.5C112.475 154.808 109.189 165.697 109.948 177.53Z" fill="#FDA35A"/>
<path d="M53.9719 90.6987C53.4086 90.8594 52.2153 90.9205 51.5 90.5C49.9974 87.8438 48.8304 85.2944 47.5 82.5C46.8196 69.3451 50.8063 58.2629 61.6965 50.4465C62.7741 49.673 63.0923 47.4303 64 45.5C70.4699 38.8549 76.5129 32.9996 83.2328 27.5532C89.3191 22.6204 93.969 16.9478 97.0261 9.81922C97.4802 8.76029 98.3285 7.80735 99.1733 6.99033C102.154 4.10755 105.621 4.92349 109 6C109.033 28.8177 109.044 51.6483 108.835 74.1231C108.4 74.5202 108.193 74.7932 107.986 75.0662C98.969 75.3732 89.7984 75.9621 80 76C75.1673 75.5915 71.2576 74.9517 67.2261 75.173C66.1116 75.2341 65.5633 77.5058 64.5 78.5C64.5 78.5 64.3586 78.7091 64 79C61.2137 81.5926 58.9277 83.6983 56.5 86C55.8288 87.4488 54.6723 88.8954 53.9719 90.6987Z" fill="#FEBC7D"/>
<path d="M108.978 6.01282C105.613 5.4035 102.154 4.10754 99.1733 6.99033C98.3285 7.80734 97.4802 8.76028 97.0261 9.81921C93.969 16.9478 89.3191 22.6204 83.2328 27.5532C76.5129 32.9996 70.5653 39.3987 64.1403 45.6902C61.5798 47.2514 59.0977 48.3993 56.7546 49.7827C52.6596 52.2003 48.6793 54.8115 44.5948 57.2474C41.8006 58.9138 39.0807 61.0625 36.0298 61.8683C29.1259 63.6918 22.0617 64.0948 15.0963 61.0743C14.1078 62.6483 13.1988 64.0956 11.6829 66.5092C10.7727 63.4041 10.2722 61.227 9.49517 59.1535C8.24107 55.8072 6.31158 55.6567 4 59.1535C3.42335 58.112 3.02339 56.5281 3.0608 55.2944C3.27665 48.1796 3.42478 41.3147 4 33.5C5.30573 31.6859 6.57154 30.3294 7.6181 29.2183C8.40229 30.5601 9.37155 31.8305 9.92367 33.2618C10.6073 35.0339 10.945 36.9395 11.4321 38.7874C11.8643 38.8679 12.2964 38.9483 12.7286 39.0288C13.991 33.2408 18.2019 33.8824 22.1854 33.9961C26.0919 34.1076 30.2761 33.1315 33.089 37.1818C33.4582 37.7134 34.5852 37.9432 35.3575 37.9357C42.7334 37.8641 50.4447 39.3841 56.5828 33.3361C57.4541 32.4776 59.1789 32.5373 60.1862 31.7561C65.462 27.665 71.0331 23.8283 75.6557 19.0798C77.6471 17.0342 78.6508 14.341 81.8904 13.4104C84.7844 12.579 86.2629 10.7396 82.977 8.17593C82.4582 7.77115 82.3859 6.7941 82.2237 6.37936C84.3724 5.12778 85.683 4.05841 87.5 3C88.247 2.99265 89.1824 2.7731 90.5 3C92 2.5 93.1286 2.65533 94 2.5C98.7841 3.0574 103.89 3.51099 109 4.5C109.326 4.93164 108.978 6.01282 108.978 6.01282Z" fill="#FEBC8B"/>
<path d="M87.5372 3.00347C86.1894 4.06939 84.3724 5.12777 82.2237 6.37936C82.3859 6.79409 82.4582 7.77114 82.977 8.17592C86.2629 10.7396 84.7844 12.579 81.8904 13.4104C78.6508 14.341 77.6471 17.0342 75.6557 19.0798C71.033 23.8283 65.462 27.665 60.1861 31.7561C59.1788 32.5373 57.4541 32.4776 56.5828 33.3361C50.4446 39.3841 42.7334 37.8641 35.3575 37.9357C34.5852 37.9432 33.4582 37.7134 33.089 37.1818C30.2761 33.1315 26.0918 34.1076 22.1854 33.9961C18.2019 33.8824 13.991 33.2407 12.7286 39.0288C12.2964 38.9483 11.8642 38.8679 11.4321 38.7874C10.9449 36.9395 10.6073 35.0339 9.92365 33.2618C9.37153 31.8305 8.40227 30.56 7.61808 29.2183C6.57152 30.3294 5.30742 33.1529 4 34.5C3.50722 26.0281 3.21343 15.5972 3.54742 6.91118C3.60049 5.53097 7.35801 3.42226 9.57423 3.17281C14.5852 2.60882 19.7032 2.99627 24.7776 2.99627C45.5411 2.99627 66.3045 2.99609 87.5372 3.00347Z" fill="#FDC395"/>
<path d="M93.8064 2.7605C93.1315 3.14685 92.26 3.30216 91.1916 3.22565C91.8664 2.83905 92.7382 2.68427 93.8064 2.7605Z" fill="#FDC395"/>
<path d="M131.447 200.5C130.537 200.386 129.316 199.907 127.947 198.5C127.871 197.997 128 197.422 128 197C128.974 197.533 131 199 131.447 200.5Z" fill="#F86687"/>
<path d="M146.023 214.602C146.5 218.5 136.628 209.007 135.5 204.5C138.108 206.578 143.313 211.831 146.023 214.602Z" fill="#F86687"/>
<path d="M149.917 217.674C148.995 217.235 148.04 216.462 147.041 215.358C147.959 215.798 148.923 216.569 149.917 217.674Z" fill="#F86687"/>
<path d="M136.5 205.5C135.58 205.071 132.004 201.589 131 200.5C132 200 135.501 204.408 136.5 205.5Z" fill="#F86687"/>
<path d="M109 74C109.516 74.007 109.59 74.3226 109.896 74.7781C109.749 75.4843 109.38 76.7363 109 77.5C108.57 77.3 107.846 75.7432 107.5 75C107.674 74.443 108.565 74.3972 109 74Z" fill="#FDC395"/>
<path d="M64.4464 77.9956C65.0918 77.0193 66.1116 75.2341 67.2261 75.173C71.2576 74.9517 76.1361 75.5905 80.5 76C75.7683 76.9329 69.9087 77.3149 64.4464 77.9956Z" fill="#FDC395"/>
<path d="M56.3591 85.9524C58.4425 83.6962 60.8702 81.3946 63.6488 79.0508C61.5677 81.3081 59.1355 83.6075 56.3591 85.9524Z" fill="#FDC395"/>
<path d="M106.873 176.7C107.013 181.333 106.681 185.683 107.061 189.97C108.136 202.079 100.665 208.763 91.777 214.512C90.2187 215.52 88.0232 215.926 86.1148 215.947C74.3163 216.074 62.5136 215.885 50.7171 216.083C46.9412 216.147 45.8184 214.813 45.9462 211.172C46.4169 197.751 46.6613 184.323 46.9997 170.423C53.1719 169.084 59.3305 168.183 65.5012 167.376C67.4605 167.119 69.458 166.953 71.4279 167.024C75.2304 167.161 78.2527 166.221 79.9029 162.373C80.2939 161.461 81.7168 160.134 82.3009 160.298C86.9491 161.6 92.0932 162.356 95.94 164.966C100.171 167.837 103.183 172.503 106.873 176.7Z" fill="#FF9133"/>
<path d="M108.992 6.48001C108.978 6.01282 108.978 5.24246 108.992 5C112.935 8.25189 118.853 11.3367 120.39 15.678C123.103 23.3385 131.205 24.0978 135.075 30.2673C138.788 36.1867 145.443 40.2333 150.688 45.227C156.492 50.754 162.305 56.2863 167.838 62.0791C171.144 65.5388 173.921 69.5031 176.993 73.6017C167.299 74.3079 157.549 74.8194 147.794 74.9555C135.514 75.1268 122.866 75.1644 110 74.9555C109.227 74.4959 108.788 74.1312 108.5 74C108.481 51.6494 109.025 29.2978 108.992 6.48001Z" fill="#FECF9F"/>
</svg>
