<svg width="748" height="257" viewBox="0 0 748 257" fill="none" xmlns="http://www.w3.org/2000/svg">
<path d="M290.996 113.136C275.54 113.136 260.582 113.136 245.292 113.136C245.292 79.0935 245.292 45.3859 245.292 11.3643C246.236 11.2248 247.166 10.9677 248.097 10.9673C264.909 10.9597 281.725 10.7653 298.533 11.0556C318.872 11.4069 330.465 29.0642 322.876 47.918C321.852 50.461 320.072 52.8359 318.179 54.8536C316.311 56.8433 313.855 58.2807 311.288 60.243C319.232 63.9916 325.668 68.8117 327.422 77.5932C331.8 99.5081 318.997 111.777 301.976 112.918C298.493 113.151 294.989 113.071 290.996 113.136ZM279.529 92.9103C283.843 92.9037 288.167 93.0716 292.47 92.851C299.556 92.4875 303.261 88.9747 303.638 82.6396C304.015 76.2814 299.881 70.6133 293.368 70.1505C285.345 69.5803 277.251 70.0142 268.855 70.0142C268.855 74.1257 268.855 77.7517 268.855 81.3777C268.855 85.1172 268.855 88.8568 268.855 92.911C272.613 92.911 275.578 92.911 279.529 92.9103ZM289.708 52.2944C291.477 51.8901 293.333 51.7048 294.999 51.0398C299.676 49.1718 301.783 45.0878 301.053 39.7603C300.374 34.7965 296.863 32.4077 292.515 32.1513C284.79 31.6959 277.018 32.0234 269.152 32.0234C269.152 39.0395 269.152 45.5671 269.152 52.3668C275.935 52.3668 282.383 52.3668 289.708 52.2944Z" fill="#2C2929"/>
<path d="M290.993 244.158C275.522 244.16 260.549 244.16 245.259 244.16C245.259 210.49 245.259 177.116 245.259 143.218C249.788 143.218 254.081 143.177 258.374 143.226C272.53 143.385 286.716 143.055 300.831 143.906C314.203 144.713 321.599 151.695 323.706 163.55C325.921 176.016 321.154 185.594 309.574 191.649C310.213 192.045 310.726 192.437 311.296 192.707C324.196 198.796 329.349 208.691 326.912 222.721C324.828 234.722 315.824 242.587 302.478 243.85C298.839 244.195 295.155 244.068 290.993 244.158ZM268.24 203.738C268.24 210.464 268.24 217.19 268.24 224.172C276.308 224.172 283.74 224.435 291.145 224.096C298.265 223.769 302.208 220.302 302.731 214.821C303.352 208.322 300.092 204.093 292.064 201.923C285.643 201.832 279.222 201.661 272.802 201.713C271.351 201.725 269.907 202.515 268.24 203.738ZM269.353 163.669C268.957 170.321 268.561 176.973 268.163 183.676C276.242 183.676 283.255 184.074 290.2 183.561C296.808 183.074 300.485 178.612 300.234 172.745C300.002 167.33 296.376 164.056 289.713 163.772C283.225 163.495 276.722 163.591 269.353 163.669Z" fill="#2C2929"/>
<path d="M696.055 110.052C675.102 105.824 666.293 81.959 672.88 63.0638C676.639 52.2805 684.035 44.9992 695.212 42.1915C705.948 39.4946 715.925 41.5509 725.019 49.1905C725.425 46.107 725.702 44.0091 726.024 41.5668C732.925 41.5668 739.796 41.5668 746.731 41.5668C746.731 65.9777 747.65 90.2823 746.35 114.468C745.683 126.887 736.813 135.465 724.629 139.273C706.902 144.814 690.25 142.23 674.124 131.747C677.76 126.675 681.186 121.897 684.857 116.776C691.589 121.689 698.927 124.246 707.169 124.128C720.724 123.936 726.109 118.049 724.843 104.082C716.115 109.925 706.77 112.434 696.055 110.052ZM708.583 92.225C720.694 91.6233 725.098 87.0285 725.069 75.0302C725.064 73.0355 725.199 71.029 725.02 69.0505C724.907 67.7967 724.626 66.3751 723.918 65.3887C720.183 60.1824 709.669 57.8688 702.87 60.6064C696.281 63.2591 692.91 70.4414 694.053 79.3924C694.991 86.7394 699.65 91.1032 708.583 92.225Z" fill="#2C2929"/>
<path d="M506.989 19.0577C506.984 35.8734 506.979 52.1997 506.986 68.5261C506.986 68.8293 507.138 69.1325 507.468 70.3607C513.79 62.5485 520.178 55.4569 525.588 47.6857C529.138 42.5874 533.001 40.3607 539.166 40.9628C544.398 41.4738 549.719 41.0682 556.283 41.0682C551.994 46.1589 548.42 50.4254 544.818 54.6682C542.771 57.0801 540.693 59.4668 538.601 61.8405C535.978 64.8168 531.243 67.7512 531.219 70.7344C531.189 74.4192 534.933 78.2211 537.278 81.8221C543.891 91.9794 550.623 102.06 557.928 113.108C549.561 113.108 542.019 113.242 534.492 112.972C533.298 112.929 531.892 111.256 531.057 110.018C526.064 102.621 521.21 95.1308 516.349 87.7333C507.248 94.0024 505.624 102.691 507.272 112.771C499.671 112.771 492.637 112.771 485.31 112.771C485.31 78.7749 485.31 44.8796 485.31 10.6546C492.444 10.6546 499.366 10.6546 506.989 10.6546C506.989 13.384 506.989 15.9762 506.989 19.0577Z" fill="#2C2929"/>
<path d="M372.214 59.362C361.943 56.1685 352.874 59.3267 343.576 63.4419C341.192 58.8319 338.927 54.451 336.694 50.1342C349.931 39.7497 375.933 37.5338 390.08 45.5128C397.262 49.5633 401.617 55.9582 401.836 64.0946C402.271 80.2175 401.965 96.3605 401.965 112.798C394.62 112.798 387.366 112.798 379.728 112.798C379.728 110.757 379.728 108.69 379.728 107.499C373.103 109.878 366.735 113.167 359.995 114.369C347.001 116.686 335.162 108.245 332.597 96.0088C330.86 87.715 335.27 77.8369 342.753 73.9755C354.483 67.923 366.533 67.0738 378.774 72.5851C379.927 65.8978 378.291 62.5317 372.214 59.362ZM366.714 82.7474C365.061 82.8928 363.372 82.8686 361.763 83.2148C356.512 84.3439 353.781 87.4687 354.281 91.5583C354.825 96.007 358.274 98.8338 363.403 99.0363C374.871 99.489 379.747 94.61 378.954 82.6913C375.231 82.6913 371.444 82.6913 366.714 82.7474Z" fill="#2C2929"/>
<path d="M590.818 71.7589C592.665 58.7504 599.656 50.0096 610.904 44.5451C628.317 36.0859 650.68 41.5463 661.01 56.6822C669.537 69.176 669.088 86.6645 659.914 99.3404C650.908 111.785 633.582 117.635 618.495 113.325C599.23 107.822 588.374 91.7139 590.818 71.7589ZM643.415 83.4573C643.618 80.3227 644.233 77.1494 643.944 74.0608C643.151 65.6003 636.906 59.9841 628.706 59.9034C620.531 59.823 615.051 64.8183 613.882 73.6213C613.579 75.9061 613.519 78.2779 613.749 80.5693C614.576 88.801 619.094 94.1065 625.81 95.0141C634.119 96.1366 639.974 92.5028 643.415 83.4573Z" fill="#2C2929"/>
<path d="M411.437 200.703C415.443 183.25 428.196 172.662 446.422 171.314C463.051 170.083 478.558 179.17 484.341 193.534C490.822 209.633 486.382 226.578 472.803 237.572C461.651 246.6 442.529 247.643 428.886 239.968C415.378 232.369 409.181 218.652 411.437 200.703ZM454.401 224.409C466.865 221.38 466.551 199.193 457.381 193.271C450.98 189.137 442.219 189.803 437.508 195.428C433.233 200.531 432.505 211.812 436.041 218.149C439.516 224.376 444.469 226.236 454.401 224.409Z" fill="#2C2929"/>
<path d="M402.42 189.611C412.891 210.345 404.993 233.848 385.137 241.973C363.388 250.873 339.3 240.412 332.676 219.19C327.841 203.702 333.406 187.054 346.422 178.069C359.985 168.707 380.657 169.138 393.209 179.412C396.622 182.205 399.232 185.98 402.42 189.611ZM356.847 196.513C356.008 198.666 354.88 200.754 354.379 202.983C352.434 211.635 355.664 220.577 361.657 223.698C373.392 229.81 384.564 221.397 383.972 206.851C383.695 200.044 381.161 194.49 374.461 191.824C367.884 189.206 362.078 190.624 356.847 196.513Z" fill="#2C2929"/>
<path d="M532.503 200.567C536.349 201.846 539.954 202.677 543.246 204.189C555.371 209.759 558.617 225.03 549.481 234.899C546.43 238.194 542.327 241.249 538.121 242.616C520.406 248.372 504.061 245.057 488.927 233.438C492.323 228.987 495.602 224.689 499.033 220.191C505.786 224.761 512.746 228.055 520.772 228.268C522.591 228.316 524.698 228.559 526.178 227.777C528.312 226.649 529.994 224.665 531.87 223.047C530.231 221.472 528.852 219.134 526.903 218.474C522.209 216.883 517.208 216.226 512.41 214.904C509.066 213.982 505.709 212.872 502.606 211.343C490.213 205.235 488.236 188.086 498.972 179.221C512.969 167.661 537.124 169.269 552.075 180.739C549.255 184.993 546.424 189.261 543.748 193.298C538.277 191.617 533.027 189.591 527.59 188.493C524.474 187.864 520.996 188.454 517.8 189.09C516.575 189.333 514.92 191.185 514.846 192.389C514.773 193.59 516.179 195.607 517.376 196.035C522.198 197.759 527.189 199.007 532.503 200.567Z" fill="#2C2929"/>
<path d="M477.896 96.9303C468.674 116.807 440.544 119.618 424.107 107.737C407.445 95.6929 403.672 70.7701 416.332 54.5094C432.225 34.0962 467.683 36.8474 478.827 59.4881C472.5 62.2914 466.179 65.0923 459.875 67.885C454.541 59.2915 445.791 57.1521 438.291 62.5024C430.762 67.8733 429.588 82.477 436.082 89.9708C442.336 97.1872 452.216 96.6356 460.877 88.1986C466.444 90.9275 472.194 93.7464 477.896 96.9303Z" fill="#2C2929"/>
<path d="M565.944 213.967C565.944 205.659 565.944 197.848 565.944 189.568C562.997 189.568 560.272 189.568 557.262 189.568C557.262 184.184 557.262 179.268 557.262 174.046C560.085 173.768 562.825 173.499 565.86 173.201C565.86 165.832 565.86 158.714 565.86 151.255C573.424 151.255 580.668 151.255 588.637 151.255C588.637 158.638 588.637 166.037 588.637 173.769C593.619 173.769 597.894 173.769 602.522 173.769C602.522 179.029 602.522 183.952 602.522 189.468C598.182 189.468 593.771 189.468 589.012 189.468C589.012 200.45 588.816 210.858 589.111 221.252C589.224 225.252 591.99 227.062 596.083 226.248C597.85 225.897 599.603 225.48 601.67 225.025C602.598 230.108 603.514 235.126 604.415 240.056C588.235 250.752 570.276 244.899 566.933 227.855C566.078 223.495 566.246 218.934 565.944 213.967Z" fill="#2C2929"/>
<path d="M561.099 41.9787C561.099 31.354 561.099 21.2292 561.099 10.7818C568.58 10.7818 575.654 10.7818 583.007 10.7818C583.007 44.7576 583.007 78.6398 583.007 112.85C575.85 112.85 568.805 112.85 561.099 112.85C561.099 89.2874 561.099 65.8831 561.099 41.9787Z" fill="#2C2929"/>
<path d="M190.5 256.479C188.676 256.583 186.406 256.944 184.582 256.945C140.115 256.967 95.6479 256.968 51.1809 256.972C49.697 256.972 48.2131 256.972 45.8145 256.972C45.8145 244.457 45.6212 230.939 46 218.479C46.6095 219.99 47.2181 223.021 47.2327 224.765C47.3025 233.149 47.2641 241.534 47.2641 249.918C47.8428 249.739 48.4215 249.56 49.0002 249.381C50.6694 250.237 53.2402 251.114 54.5 251.979C52.752 252.307 50.5119 252.606 49.1733 252.926C49.2431 253.508 49.313 254.09 49.3829 254.671C55.8915 254.671 62.4006 254.7 68.9081 254.614C69.393 254.607 69.8499 253.756 70.3488 253.331C76.1842 248.367 81.9516 243.319 87.89 238.481C92.0034 235.13 96.8896 232.573 100.471 228.76C105.544 223.359 111.563 219.735 118.181 216.97C124.39 214.377 130.727 213.302 136.329 218.59C140.772 222.784 147.689 223.525 151.027 229.437C151.8 230.806 154.394 231.106 156.093 232.006C157.315 232.653 158.891 233.214 159.522 234.279C161.023 236.815 162.255 239.556 163.24 242.34C165.94 249.967 168.465 252.143 176.034 252.421C178.693 252.519 181.371 252.101 184.031 251.929C184.582 251.835 184.894 252.265 185 252.479C185.301 252.959 184.765 252.737 185.089 252.847C185.099 252.856 186.057 252.558 186.086 252.847C186.586 252.847 186.189 252.537 186.5 252.847C186.82 252.348 186.853 252.979 187.5 252.479C188.262 252.463 188.429 252.191 189 252.479C189.406 253.829 190.229 255.431 190.5 256.479Z" fill="#F86687"/>
<path d="M190.5 256.479C189.918 255.347 188.89 254.273 188.5 252.479C188.053 246.388 188.347 241.321 188.285 235.676C188.694 232.574 188.839 229.773 188.984 226.641C188.984 225.869 188.983 225.428 188.991 224.532C188.998 215.332 189.128 206.584 188.964 197.841C188.777 187.89 188.447 177.938 187.893 168.002C187.782 166.024 186.38 164.119 185.034 160.887C183.181 164.955 182.057 167.423 180.713 170.373C179.178 168.687 178.016 167.411 176.524 165.771C173.513 167.405 170.656 169.403 167.488 170.514C165.41 171.243 162.863 170.879 160.566 170.634C159.338 170.502 158.248 169.315 157.004 169.066C146.41 166.945 140.005 159.232 140.003 148.437C140.002 141.99 139.872 135.541 140.041 129.099C140.161 124.557 138.102 123.162 133.738 122.819C129.958 122.522 126.162 121.15 122.598 119.7C118.059 117.853 115.176 113.007 109 114.479C108.99 103.319 108.589 90.6696 109 79.9788C111.019 80.5461 114.285 81.8656 114.461 82.7263C115.522 87.9175 119.201 87.8767 123.176 88.0348C127.949 88.2245 129.109 90.149 127.639 94.7595C126.269 99.054 129.705 103.108 134.139 102.43C138.442 101.773 142.545 103.961 143.496 108.363C144.709 113.982 146.406 119.982 145.526 125.436C144.566 131.383 146.803 134.214 151.106 136.653C154.906 138.806 158.782 140.859 162.774 142.615C163.956 143.134 165.647 142.502 167.104 142.388C171.709 142.026 175.373 136.92 180.692 139.683C180.998 139.842 182.312 138.386 182.938 137.522C183.661 136.524 184.142 135.35 185.51 132.789C186.697 135.731 188.833 136.942 189.5 138.979C189.501 140.413 189.506 141.596 189.5 142.979C189.825 144.107 189.668 144.254 190 145.479C190.661 154.405 190.71 163.823 190.895 172.324C191.21 186.785 190.953 201.257 191.027 215.725C191.036 217.473 191.606 219.218 191.916 220.964C191.981 230.015 192.046 239.066 192.101 248.959C192.159 250.839 192.228 251.878 192.298 252.916C192.234 253.386 192.171 253.856 192.111 254.901C192.114 255.476 192.255 255.947 192.255 255.947C191.729 256.236 191.338 256.273 190.5 256.479Z" fill="#FEB397"/>
<path d="M0.27697 184.011C0.26223 179.634 0.247475 175.258 0.668282 170.283C1.73754 166.163 2.6233 162.665 2.95179 159.115C3.6097 152.004 3.96278 144.866 4.4417 137.738C5.54659 138.244 5.7243 138.801 5.95148 139.337C6.58398 140.829 7.23701 142.313 7.88192 143.8C8.59547 142.22 9.29064 140.632 10.0281 139.064C10.6866 137.664 11.3917 136.286 12.0763 134.898C12.5596 135.111 13.0429 135.323 13.5262 135.536C13.8475 137.845 14.1688 140.154 14.3287 141.303C17.806 139.376 20.9169 137.003 24.4287 135.83C34.4214 132.493 40.2476 125.34 44.4094 116.022C45.5376 117.262 46.7714 118.436 46.8822 119.708C47.178 123.106 46.9913 126.546 46.9934 130.43C46.9772 134.589 46.9639 138.286 46.5873 141.996C44.2175 145.074 42.4067 148.29 40.169 151.176C32.576 160.969 24.8774 170.681 17.0683 180.301C16.366 181.166 14.4753 180.963 13.3202 181.593C12.1503 182.231 10.3915 183.213 10.3034 184.173C9.8388 189.239 9.76646 194.346 9.6724 199.44C9.6305 201.709 9.85677 203.984 9.97225 206.494C8.03471 206.581 6.66299 206.643 5.3711 206.701C5.3711 209.472 5.3711 211.894 5.3711 214.979C9.22218 214.979 12.8468 214.797 16.4382 215.063C18.0089 215.18 19.9337 216.346 21 217.007C18.3665 217.077 15.7748 216.897 13.613 217.007C10.1142 217.185 7.49585 217.742 4 217.979C-0.640762 216.209 0.927146 211.828 0.46537 208.028C0.591544 199.525 0.434258 191.768 0.27697 184.011Z" fill="#FA8352"/>
<path d="M0.545908 104.06C0.466532 98.6649 0.387155 93.2702 0.785562 87.3919C2.17436 84.6478 3.7438 82.4234 3.87034 80.1198C4.22116 73.7324 3.52039 67.2028 3.5 60.4788C3.48952 59.7397 3.68434 59.1038 3.95065 58.4788C6.26223 54.982 8.24107 55.7859 9.49517 59.1323C10.2722 61.2058 10.7727 63.3829 11.6829 66.4879C13.1988 64.0743 14.1078 62.627 15.0963 61.0531C22.0617 64.0736 29.1259 63.6706 36.0298 61.8471C39.0807 61.0413 41.8006 58.8926 44.5948 57.2262C48.6793 54.7903 52.6596 52.1791 56.7546 49.7615C59.0977 48.3781 62.1254 46.379 64.5 45.4788C63.7332 47.1018 62.7741 49.6518 61.6965 50.4253C50.8063 58.2417 47.3243 69.1889 47.6398 82.0253C45.3662 83.0331 43.2743 83.7552 41.5635 85.0007C36.4234 88.7428 30.95 90.6456 24.4387 90.097C20.4861 89.7639 16.1107 88.8342 12.6715 92.3584C12.3381 92.7001 10.6139 92.103 9.86303 91.5197C8.76962 90.6702 7.97395 89.4375 7.04154 88.3569C4.20388 91.1047 4.15539 91.1039 4.02937 99.4498C3.99145 101.961 3.99272 104.243 0.545908 104.06Z" fill="#FEB381"/>
<path d="M3.93467 59.0042C3.93742 59.4265 3.94015 59.8489 3.6112 60.6053C2.37037 60.935 1.46126 60.9306 0.552121 60.9262C0.437695 42.8017 0.243864 24.6771 0.264173 6.55273C0.269316 1.96905 2.80708 0.0966167 8.42442 0.0807787C29.0676 0.0224897 49.711 0.0421741 70.3543 0.0433031C81.5084 0.0439141 92.6688 -0.132631 103.812 0.222869C106.506 0.308776 109.818 1.49582 111.704 3.34259C136.672 27.7917 161.418 52.4665 186.267 77.0375C190.396 81.1198 192.295 85.7173 192.268 91.6975C192.072 134.481 192.146 177.267 192.025 220.508C191.606 219.218 191.036 217.473 191.027 215.725C190.953 201.257 191.21 186.785 190.895 172.324C190.71 163.823 189.667 155.342 189.242 146.205C188.99 144.684 188.507 143.81 188.024 142.935C188.026 141.892 188.029 140.849 188.367 139.321C189.002 138.474 189.566 138.109 189.562 137.749C189.411 123.021 189.106 108.294 189.05 93.566C189.016 84.4919 185.098 78.0087 176.993 73.5805C173.921 69.4818 171.144 65.5176 167.838 62.0579C162.305 56.2651 156.492 50.7328 150.688 45.2058C145.443 40.2121 138.788 36.1655 135.075 30.2461C131.205 24.0766 123.103 23.3173 120.39 15.6568C118.853 11.3155 112.964 8.5152 108.695 4.83169C103.571 4.08511 98.787 3.52771 93.8064 2.73929C92.7382 2.66305 91.8664 2.81784 90.6211 2.97018C89.5005 2.9751 88.7535 2.98242 87.5372 2.98227C66.3045 2.97488 45.5411 2.97507 24.7776 2.97507C19.7032 2.97507 14.5852 2.58762 9.57423 3.15161C7.35801 3.40106 3.60049 5.50976 3.54742 6.88998C3.21344 15.576 3.72477 24.2946 3.9584 33.4694C3.64402 41.0482 3.27664 48.1584 3.06079 55.2732C3.02337 56.5069 3.62709 57.76 3.93467 59.0042Z" fill="#E0BAA7"/>
<path d="M54.0079 251.949C52.3386 251.093 50.6694 250.237 49.0002 249.381C48.4215 249.56 47.8428 249.739 47.264 249.918C47.264 241.534 47.0698 233.363 47 224.979C46.9855 223.234 46.8028 221.279 46.3051 219.318C45.8004 218.849 45.5627 218.597 45.1714 218.137C45.0177 217.929 45.0311 217.911 45.4988 217.927C59.0669 217.961 72.1675 218.033 85.2676 217.979C96.6111 217.932 108.875 205.469 109.038 194.203C109.107 189.435 109.824 184.168 110.5 179.479C116.59 185.184 122.239 191.094 128 196.979C128 197.4 128.35 198.361 128 198.479C125.674 196.784 123.493 194.286 121.299 193.022C119.443 191.954 117.154 191.328 115.023 191.232C114.381 191.204 113.606 193.592 112.932 194.894C110.39 199.798 108.623 205.355 105.137 209.452C101.042 214.264 95.3381 217.674 90.5508 221.938C82.5409 229.072 74.8726 236.597 66.7212 243.561C62.8904 246.833 58.2703 249.182 54.0079 251.949Z" fill="#FE6A5E"/>
<path d="M0.340384 103.979C3.90978 103.722 3.99143 101.961 4.02935 99.4498C4.15537 91.1039 4.20386 91.1047 7.04152 88.3569C7.97393 89.4375 8.76959 90.6702 9.86301 91.5197C10.6138 92.103 12.3381 92.7001 12.6715 92.3584C16.1107 88.8342 20.4861 89.7639 24.4387 90.097C30.95 90.6456 36.4234 88.7428 41.5635 85.0007C43.2743 83.7552 45.2174 82.6216 47.5 81.9788C49.1864 84.7267 50.6565 87.5677 51.5884 89.9967C46.4142 91.64 46.4835 96.2959 44.6975 100.157C42.0646 104.755 39.5525 108.908 34.0432 110.075C32.896 110.318 32.0425 111.754 30.9515 112.489C25.2365 116.337 19.4555 119.252 12.1819 116.335C5.72463 113.745 3.69565 115.254 3.06323 122.322C2.88632 124.299 3.20992 126.332 2.92548 128.284C2.73818 129.57 1.87378 130.757 1.23891 131.636C0.890292 130.161 0.615343 129.039 0.34038 127.916C0.327151 120.257 0.231009 112.078 0.340384 103.979Z" fill="#FDA773"/>
<path d="M1 131.479C1.56122 130.248 2.73819 129.57 2.92549 128.284C3.20993 126.332 2.88633 124.299 3.06324 122.322C3.69566 115.254 5.72463 113.745 12.1819 116.335C19.4555 119.252 25.2365 116.337 30.9515 112.489C32.0425 111.754 32.896 110.318 34.0433 110.075C39.5525 108.908 41.7844 104.619 44.418 100.479C44.3877 105.8 44.7505 111.303 44.418 116.335C40.6626 125.675 34.4214 132.493 24.4287 135.83C20.9169 137.003 17.806 139.376 14.3287 141.303C14.1688 140.154 13.8475 137.845 13.5262 135.536C13.0429 135.323 12.5596 135.111 12.0763 134.898C11.3917 136.286 10.6866 137.664 10.0281 139.064C9.29063 140.632 8.59545 142.22 7.88191 143.8C7.23699 142.313 6.58396 140.829 5.95147 139.337C5.72428 138.801 5.54658 138.244 4.44169 137.738C3.96276 144.866 3.60969 152.004 2.95178 159.115C2.62329 162.665 1.73753 166.163 0.784327 169.832C0.387706 161.299 0.310618 152.621 0.512416 143.146C0.965052 138.896 0.826233 134.933 1 131.479Z" fill="#FC9965"/>
<path d="M0.499977 60.922C1.51995 60.464 3.25142 60.4918 4.49999 60.4788C4.85207 66.8688 4.22113 73.7324 3.87032 80.1198C3.74378 82.4234 3.08686 86.012 1 87.9788C0.572296 79.6388 0.466637 69.7617 0.499977 60.922Z" fill="#FEBC8B"/>
<path d="M3.57053 217.809C6.6205 217.466 10.1142 217.185 13.613 217.007C15.7748 216.897 17.9445 216.943 21.0379 216.919C26.8668 216.635 31.773 216.084 36.6685 216.168C39.4651 216.215 42.713 216.864 45.5 217.479C45.5 217.479 45.4928 217.985 45.5 217.979C31.8353 217.972 17.6883 217.915 3.57053 217.809Z" fill="#FE6A5E"/>
<path d="M0.155749 184.462C0.434268 191.768 0.591555 199.525 0.505359 207.608C0.186084 200.26 0.110293 192.586 0.155749 184.462Z" fill="#A57468"/>
<path d="M1.23892 131.636C1.13881 135.442 0.965059 138.896 0.554003 142.682C0.23221 138.282 0.147722 133.552 0.201815 128.369C0.615358 129.039 0.890307 130.161 1.23892 131.636Z" fill="#A57468"/>
<path d="M192.487 252.68C192.228 251.878 192.159 250.839 192.197 249.423C192.428 250.178 192.552 251.311 192.487 252.68Z" fill="#07183D"/>
<path d="M192.376 255.857C192.255 255.947 192.114 255.476 192.204 255.247C192.597 255.216 192.664 255.466 192.376 255.857Z" fill="#07183D"/>
<path d="M127.976 196.954C122.214 191.323 116.453 185.692 110.347 179.664C109.975 178.838 109.949 178.407 109.948 177.509C109.189 165.676 111.831 154.522 108 142.979C108.411 139.884 108.388 136.698 109 133.979C110.027 134.389 111.387 134.665 111.735 135.251C114.456 139.831 117.487 143.656 123.226 145.008C132.882 147.284 138.449 153.404 140.107 163.549C140.814 167.876 142.848 172.552 145.694 175.849C151.734 182.848 158.711 189.038 165.288 195.575C171.473 201.722 178.111 207.48 180.808 216.332C181.226 217.702 183.591 218.479 185.503 219.852C186.374 221.137 187.696 222.554 189 224.479C189.001 224.92 189.37 226.1 189 226.979C189 230.479 188.575 233.048 188.5 235.979C188.828 241.324 188.675 246.666 188.986 252.455C188.534 252.913 188.099 252.928 187.012 252.925C185.927 252.916 185.493 252.925 185.06 252.933C185.06 252.933 185.041 252.953 184.944 252.715C184.653 252.191 184.386 252.017 184.045 251.956C184.045 251.956 184.021 251.94 183.999 251.587C180.37 247.642 176.797 244.016 173.151 240.465C165.437 232.952 157.685 225.478 149.917 217.653C148.923 216.548 147.959 215.777 146.77 214.975C146.545 214.945 146.09 214.915 146.023 214.58C143.313 211.81 140.671 209.374 137.842 206.694C136.753 205.629 135.852 204.807 134.917 203.652C133.917 202.56 132.953 201.802 131.781 200.906C131.314 200.552 131.111 200.292 130.931 199.65C129.922 198.527 128.949 197.741 127.976 196.954Z" fill="#FE9A83"/>
<path d="M130.967 199.986C131.111 200.292 131.314 200.552 131.83 201.232C133.042 202.459 133.997 203.223 134.951 203.986C135.852 204.807 136.753 205.629 137.875 207.052C139.191 211.803 142.18 213.331 146 214.479C146 214.479 146.729 214.618 147 214.979C148.225 216.113 150.051 216.97 150.5 217.979C158.236 225.469 165.437 232.952 173.151 240.465C176.797 244.016 180.862 248.045 184.5 251.979C181.863 252.504 178.693 252.519 176.034 252.421C168.465 252.143 165.94 249.967 163.24 242.34C162.255 239.556 161.023 236.815 159.522 234.279C158.891 233.214 157.315 232.653 156.093 232.006C154.394 231.106 151.8 230.806 151.027 229.437C147.689 223.525 140.772 222.784 136.329 218.59C130.727 213.302 124.39 214.377 118.181 216.97C111.563 219.735 105.544 223.359 100.471 228.76C96.8896 232.573 92.0034 235.13 87.89 238.481C81.9517 243.319 76.1842 248.367 70.3488 253.331C69.8499 253.756 69.3931 254.607 68.9081 254.614C62.4006 254.7 55.8915 254.671 49.3829 254.671C49.313 254.09 49.2431 253.508 49.1733 252.926C50.5119 252.606 51.8505 252.286 53.5985 251.958C58.2703 249.182 62.8904 246.833 66.7213 243.561C74.8727 236.597 82.5409 229.072 90.5508 221.938C95.3381 217.674 101.042 214.264 105.137 209.452C108.623 205.356 110.39 199.798 112.932 194.894C113.606 193.593 114.381 191.204 115.023 191.232C117.154 191.328 119.443 191.954 121.299 193.022C123.493 194.286 125.3 196.221 127.701 198.25C129.075 199.085 130.021 199.536 130.967 199.986Z" fill="#F95B80"/>
<path d="M177 73.4788C186.51 76.7314 189.021 85.9788 189.05 93.566C189.106 108.294 189.411 123.021 189.562 137.749C189.566 138.109 189.002 138.474 188.363 138.93C187.36 137.377 186.697 135.731 185.51 132.789C184.142 135.35 183.661 136.524 182.938 137.522C182.312 138.386 180.998 139.842 180.692 139.683C175.373 136.92 171.709 142.026 167.104 142.388C165.647 142.502 163.956 143.134 162.774 142.615C158.782 140.859 154.906 138.806 151.106 136.653C146.803 134.214 144.566 131.383 145.526 125.436C146.406 119.982 144.709 113.982 143.496 108.363C142.545 103.961 138.442 101.773 134.139 102.43C129.705 103.108 126.269 99.0539 127.639 94.7595C129.109 90.149 127.949 88.2245 123.176 88.0348C119.201 87.8767 115.522 87.9175 114.461 82.7263C114.285 81.8656 111.133 81.4454 109.107 80.4788C108.686 79.0157 108.994 78.055 109.107 76.7314C109.487 75.9677 109.27 74.9793 110 74.4788C122.75 74.4861 135.514 75.1056 147.794 74.9343C157.549 74.7982 167.248 73.8237 177 73.4788Z" fill="#FEB89A"/>
<path d="M108.989 76.9905C108.994 78.055 108.998 79.1195 109.01 80.5832C109.016 91.6727 109.014 102.363 109.015 113.989C109.031 121.286 109.047 127.646 109.063 134.006C108.816 136.736 109.214 141.014 108.5 143.979C103.264 139.829 97.8145 133.935 93.0897 129.504C83.9178 120.902 74.712 112.333 65.6807 103.585C61.5711 99.6036 57.8435 95.2284 53.9719 90.6775C54.6723 88.8742 55.3436 87.4254 56.3591 85.9312C59.1356 83.5863 61.5677 81.2869 64.0074 78.7386C64.015 78.4899 64.0285 77.9923 64.4464 77.9744C69.9087 77.2937 74.953 76.6309 80.4661 75.9672C89.952 75.6591 98.9496 74.5018 108 74.4788C108.346 75.222 108.677 76.5314 108.989 76.9905Z" fill="#FECF9F"/>
<path d="M109 134.479C108.62 128.108 109.031 121.286 109.025 114.459C115.2 112.051 118.059 117.853 122.598 119.7C126.162 121.15 129.958 122.522 133.738 122.819C138.102 123.162 140.161 124.557 140.041 129.099C139.872 135.541 140.002 141.99 140.003 148.437C140.005 159.232 146.41 166.945 157.004 169.066C158.248 169.315 159.338 170.502 160.566 170.634C162.863 170.879 165.41 171.243 167.488 170.514C170.656 169.403 173.513 167.405 176.524 165.771C178.016 167.411 179.178 168.687 180.713 170.373C182.057 167.423 183.181 164.955 185.034 160.887C186.38 164.119 187.782 166.024 187.893 168.002C188.447 177.938 188.777 187.89 188.964 197.841C189.128 206.584 188.998 215.332 188.991 224.532C187.679 223.062 186.374 221.137 185.503 219.852C183.591 218.479 181.226 217.702 180.808 216.332C178.111 207.48 171.473 201.722 165.288 195.575C158.711 189.038 151.734 182.848 145.694 175.849C142.848 172.552 140.814 167.877 140.107 163.549C138.449 153.404 132.882 147.284 123.226 145.008C117.487 143.656 114.456 139.831 111.735 135.251C111.387 134.665 110.027 134.889 109 134.479Z" fill="#FEA990"/>
<path d="M188.285 235.676C188.094 233.046 188.168 230.115 188.613 227.078C188.839 229.773 188.694 232.574 188.285 235.676Z" fill="#FEA990"/>
<path d="M188.02 143.274C188.507 143.81 188.99 144.684 189.238 145.77C188.674 145.191 188.345 144.403 188.02 143.274Z" fill="#FEB89A"/>
<path d="M46.5 141.979C46.5133 138.281 46.6353 134.68 47.0065 130.479C50.8064 128.008 54.5606 125.896 58.0402 123.998C61.8232 121.935 66.8993 122.264 69.3861 117.628C69.6747 117.089 72.4466 117.152 73.4332 117.842C78.6634 121.501 83.7226 125.409 88.7761 129.315C91.4657 131.393 93.9953 133.678 96.647 135.807C102.471 140.484 108.142 144.744 107.225 153.909C106.467 161.489 107.673 169.265 107.761 176.966C107.514 176.977 107.02 176.991 106.873 176.679C103.183 172.482 100.171 167.816 95.9401 164.945C92.0932 162.334 86.9491 161.579 82.301 160.277C81.7168 160.113 80.2939 161.439 79.9029 162.351C78.2528 166.2 75.2304 167.14 71.4279 167.003C69.458 166.932 67.4605 167.098 65.5013 167.355C59.3305 168.162 53.1654 170.08 47 170.479C46.98 161.009 46.5179 150.983 46.5 141.979Z" fill="#FF9D48"/>
<path d="M106.5 176.479C106.5 176.479 107.514 176.977 107.93 177.197C108.872 177.604 109.974 177.011 110.5 177.197C110.526 177.628 110.458 179.226 110.5 179.979C110.169 185.064 109.107 189.435 109.038 194.203C108.875 205.469 96.6111 217.932 85.2676 217.979C72.1675 218.033 59.0669 217.961 45.4988 217.927C42.2442 217.295 39.4651 216.215 36.6685 216.168C31.773 216.084 25.8616 216.74 20.5 216.979C18.5065 216.317 18.0089 215.18 16.4382 215.063C12.8468 214.797 9.22217 214.979 5.37109 214.979C5.37109 211.894 5.37109 209.472 5.37109 206.701C6.66298 206.643 8.0347 206.581 9.97224 206.494C9.85677 203.984 9.63049 201.709 9.67239 199.44C9.76645 194.346 9.83879 189.239 10.3034 184.173C10.3915 183.213 12.1503 182.231 13.3202 181.593C14.4753 180.963 16.366 181.166 17.0683 180.301C24.8774 170.681 32.576 160.969 40.169 151.176C42.4067 148.29 44.2175 145.074 46.5873 141.996C46.9685 150.988 46.9865 159.992 46.9976 169.937C46.6613 184.302 46.4169 197.73 45.9462 211.15C45.8184 214.792 46.9413 216.126 50.7171 216.062C62.5136 215.864 74.3163 216.052 86.1148 215.925C88.0232 215.905 90.2187 215.498 91.777 214.49C100.665 208.742 108.136 202.058 107.061 189.949C106.681 185.662 106.493 180.8 106.5 176.479Z" fill="#FE7A4A"/>
<path d="M109.948 177.509C109.397 177.79 107.919 177.397 107.225 176.979C106.72 169.058 106.467 161.489 107.225 153.909C108.142 144.744 102.471 140.484 96.647 135.807C93.9954 133.678 91.4657 131.393 88.7761 129.315C83.7226 125.409 78.6634 121.501 73.4332 117.842C72.4466 117.152 69.6747 117.089 69.3861 117.628C66.8993 122.264 61.8232 121.935 58.0402 123.998C54.5606 125.896 50.797 128.47 47 130.479C46.6399 127.098 47.178 123.106 46.8822 119.708C46.7714 118.436 45.5376 117.262 44.4094 116.022C44.3355 110.969 44.0778 105.969 44.4094 100.479C45.8934 96.329 46.1446 91.3953 51.5 89.9788C52.6049 90.3997 53.466 90.285 54 90.4788C57.9009 94.6752 61.5711 99.6036 65.6807 103.585C74.712 112.333 83.9178 120.902 93.0897 129.504C97.8145 133.935 103.105 138.965 108.177 143.479C112.475 154.787 109.189 165.676 109.948 177.509Z" fill="#FDA35A"/>
<path d="M53.9719 90.6775C53.4086 90.8382 52.2153 90.8993 51.5 90.4788C49.9974 87.8226 48.8304 85.2732 47.5 82.4788C46.8196 69.3239 50.8063 58.2417 61.6965 50.4253C62.7741 49.6518 63.0923 47.4091 64 45.4788C70.4699 38.8336 76.5129 32.9784 83.2328 27.532C89.3191 22.5992 93.969 16.9266 97.0261 9.79801C97.4802 8.73908 98.3285 7.78614 99.1733 6.96912C102.154 4.08634 105.621 4.90228 109 5.97879C109.033 28.7965 109.044 51.6271 108.835 74.1018C108.4 74.499 108.193 74.772 107.986 75.045C98.969 75.352 89.7984 75.9409 80 75.9788C75.1673 75.5703 71.2576 74.9305 67.2261 75.1518C66.1116 75.2129 65.5633 77.4846 64.5 78.4788C64.5 78.4788 64.3586 78.6879 64 78.9788C61.2137 81.5714 58.9277 83.6771 56.5 85.9788C55.8288 87.4276 54.6723 88.8742 53.9719 90.6775Z" fill="#FEBC7D"/>
<path d="M108.978 5.99161C105.613 5.38229 102.154 4.08633 99.1733 6.96912C98.3285 7.78613 97.4802 8.73907 97.0261 9.798C93.969 16.9266 89.3191 22.5992 83.2328 27.532C76.5129 32.9784 70.5653 39.3775 64.1403 45.669C61.5798 47.2302 59.0977 48.3781 56.7546 49.7615C52.6596 52.1791 48.6793 54.7903 44.5948 57.2262C41.8006 58.8926 39.0807 61.0413 36.0298 61.8471C29.1259 63.6706 22.0617 64.0736 15.0963 61.0531C14.1078 62.627 13.1988 64.0743 11.6829 66.4879C10.7727 63.3829 10.2722 61.2058 9.49517 59.1323C8.24107 55.7859 6.31158 55.6355 4 59.1323C3.42335 58.0908 3.02339 56.5069 3.0608 55.2732C3.27665 48.1584 3.42478 41.2935 4 33.4788C5.30573 31.6647 6.57154 30.3082 7.6181 29.1971C8.40229 30.5388 9.37155 31.8093 9.92367 33.2406C10.6073 35.0127 10.945 36.9183 11.4321 38.7662C11.8643 38.8466 12.2964 38.9271 12.7286 39.0076C13.991 33.2195 18.2019 33.8612 22.1854 33.9749C26.0919 34.0864 30.2761 33.1103 33.089 37.1606C33.4582 37.6922 34.5852 37.922 35.3575 37.9145C42.7334 37.8429 50.4447 39.3629 56.5828 33.3149C57.4541 32.4564 59.1789 32.5161 60.1862 31.7349C65.462 27.6438 71.0331 23.8071 75.6557 19.0586C77.6471 17.013 78.6508 14.3198 81.8904 13.3892C84.7844 12.5578 86.2629 10.7184 82.977 8.15472C82.4582 7.74994 82.3859 6.77289 82.2237 6.35815C84.3724 5.10657 85.683 4.0372 87.5 2.97879C88.247 2.97144 89.1824 2.75189 90.5 2.97879C92 2.47879 93.1286 2.63413 94 2.47879C98.7841 3.03619 103.89 3.48978 109 4.47879C109.326 4.91043 108.978 5.99161 108.978 5.99161Z" fill="#FEBC8B"/>
<path d="M87.5372 2.98226C86.1894 4.04818 84.3724 5.10656 82.2237 6.35815C82.3859 6.77288 82.4582 7.74993 82.977 8.15472C86.2629 10.7184 84.7844 12.5578 81.8904 13.3892C78.6508 14.3198 77.6471 17.013 75.6557 19.0586C71.033 23.8071 65.462 27.6438 60.1861 31.7349C59.1788 32.516 57.4541 32.4564 56.5828 33.3149C50.4446 39.3629 42.7334 37.8429 35.3575 37.9145C34.5852 37.922 33.4582 37.6922 33.089 37.1605C30.2761 33.1103 26.0918 34.0864 22.1854 33.9749C18.2019 33.8612 13.991 33.2195 12.7286 39.0076C12.2964 38.9271 11.8642 38.8466 11.4321 38.7662C10.9449 36.9183 10.6073 35.0127 9.92365 33.2406C9.37153 31.8093 8.40227 30.5388 7.61808 29.1971C6.57152 30.3082 5.30742 33.1317 4 34.4788C3.50722 26.0069 3.21343 15.576 3.54742 6.88998C3.60049 5.50976 7.35801 3.40105 9.57423 3.1516C14.5852 2.58761 19.7032 2.97506 24.7776 2.97506C45.5411 2.97506 66.3045 2.97488 87.5372 2.98226Z" fill="#FDC395"/>
<path d="M93.8064 2.73929C93.1315 3.12564 92.26 3.28095 91.1916 3.20444C91.8664 2.81784 92.7382 2.66306 93.8064 2.73929Z" fill="#FDC395"/>
<path d="M131.447 200.479C130.537 200.364 129.316 199.886 127.947 198.479C127.871 197.976 128 197.4 128 196.979C128.974 197.512 131 198.979 131.447 200.479Z" fill="#F86687"/>
<path d="M146.023 214.58C146.5 218.479 136.628 208.986 135.5 204.479C138.108 206.556 143.313 211.81 146.023 214.58Z" fill="#F86687"/>
<path d="M149.917 217.653C148.995 217.214 148.04 216.441 147.041 215.337C147.959 215.777 148.923 216.548 149.917 217.653Z" fill="#F86687"/>
<path d="M136.5 205.479C135.58 205.05 132.004 201.568 131 200.479C132 199.979 135.501 204.387 136.5 205.479Z" fill="#F86687"/>
<path d="M109 73.9788C109.516 73.9858 109.59 74.3014 109.896 74.7569C109.749 75.4631 109.38 76.7151 109 77.4788C108.57 77.2788 107.846 75.722 107.5 74.9788C107.674 74.4218 108.565 74.3759 109 73.9788Z" fill="#FDC395"/>
<path d="M64.4464 77.9744C65.0918 76.9981 66.1116 75.2129 67.2261 75.1518C71.2576 74.9305 76.1361 75.5693 80.5 75.9788C75.7683 76.9117 69.9087 77.2937 64.4464 77.9744Z" fill="#FDC395"/>
<path d="M56.3591 85.9312C58.4425 83.675 60.8702 81.3734 63.6488 79.0295C61.5677 81.2869 59.1355 83.5863 56.3591 85.9312Z" fill="#FDC395"/>
<path d="M106.873 176.679C107.013 181.312 106.681 185.662 107.061 189.949C108.136 202.058 100.665 208.742 91.777 214.49C90.2187 215.498 88.0232 215.905 86.1148 215.925C74.3163 216.052 62.5136 215.864 50.7171 216.062C46.9412 216.126 45.8184 214.792 45.9462 211.151C46.4169 197.73 46.6613 184.302 46.9997 170.402C53.1719 169.063 59.3305 168.162 65.5012 167.355C67.4605 167.098 69.458 166.932 71.4279 167.003C75.2304 167.14 78.2527 166.2 79.9029 162.351C80.2939 161.439 81.7168 160.113 82.3009 160.277C86.9491 161.579 92.0932 162.334 95.94 164.945C100.171 167.816 103.183 172.482 106.873 176.679Z" fill="#FF9133"/>
<path d="M108.992 6.4588C108.978 5.99161 108.978 5.22125 108.992 4.97879C112.935 8.23068 118.853 11.3155 120.39 15.6568C123.103 23.3173 131.205 24.0766 135.075 30.2461C138.788 36.1655 145.443 40.2121 150.688 45.2058C156.492 50.7328 162.305 56.2651 167.838 62.0579C171.144 65.5176 173.921 69.4818 176.993 73.5805C167.299 74.2867 157.549 74.7982 147.794 74.9343C135.514 75.1056 122.866 75.1432 110 74.9343C109.227 74.4747 108.788 74.11 108.5 73.9788C108.481 51.6282 109.025 29.2766 108.992 6.4588Z" fill="#FECF9F"/>
</svg>
